<svg width="28" height="28" viewBox="0 0 28 28" fill="none" xmlns="http://www.w3.org/2000/svg">
<path d="M15.3331 7.33332L12.6665 7.33332L12.6665 12.6666L7.33312 12.6666L7.33312 15.3333L12.6665 15.3333L12.6665 20.6667L15.3331 20.6667L15.3331 15.3333L20.6665 15.3333L20.6665 12.6666L15.3331 12.6666L15.3331 7.33332ZM13.9998 0.666648C6.63979 0.666648 0.666454 6.63998 0.666455 14C0.666454 21.36 6.63979 27.3333 13.9998 27.3333C21.3598 27.3333 27.3331 21.36 27.3331 14C27.3331 6.63998 21.3598 0.666648 13.9998 0.666648ZM13.9998 24.6667C8.11979 24.6666 3.33312 19.88 3.33312 14C3.33312 8.11998 8.11979 3.33332 13.9998 3.33332C19.8798 3.33332 24.6665 8.11998 24.6665 14C24.6665 19.88 19.8798 24.6666 13.9998 24.6667Z" fill="#747881"/>
</svg>
