<svg width="28" height="28" viewBox="0 0 28 28" fill="none" xmlns="http://www.w3.org/2000/svg">
<path d="M13.9865 0.666626C6.6265 0.666626 0.666504 6.63996 0.666504 14C0.666504 21.36 6.6265 27.3333 13.9865 27.3333C21.3598 27.3333 27.3332 21.36 27.3332 14C27.3332 6.63996 21.3598 0.666626 13.9865 0.666626ZM13.9998 24.6666C8.1065 24.6666 3.33317 19.8933 3.33317 14C3.33317 8.10663 8.1065 3.33329 13.9998 3.33329C19.8932 3.33329 24.6665 8.10663 24.6665 14C24.6665 19.8933 19.8932 24.6666 13.9998 24.6666ZM18.6665 12.6666C19.7732 12.6666 20.6665 11.7733 20.6665 10.6666C20.6665 9.55996 19.7732 8.66663 18.6665 8.66663C17.5598 8.66663 16.6665 9.55996 16.6665 10.6666C16.6665 11.7733 17.5598 12.6666 18.6665 12.6666ZM9.33317 12.6666C10.4398 12.6666 11.3332 11.7733 11.3332 10.6666C11.3332 9.55996 10.4398 8.66663 9.33317 8.66663C8.2265 8.66663 7.33317 9.55996 7.33317 10.6666C7.33317 11.7733 8.2265 12.6666 9.33317 12.6666ZM13.9998 21.3333C17.1065 21.3333 19.7465 19.3866 20.8132 16.6666H7.1865C8.25317 19.3866 10.8932 21.3333 13.9998 21.3333Z" fill="#747881"/>
</svg>
