<svg width="20" height="20" viewBox="0 0 20 20" fill="none" xmlns="http://www.w3.org/2000/svg">
<path d="M2.34018 0.935059L0.930176 2.34506L5.29018 6.70506L5.00018 7.00506H1.00018V13.0051H5.00018L10.0002 18.0051V11.4151L14.1802 15.5951C13.5302 16.0851 12.8002 16.4751 12.0002 16.7051V18.7651C13.3402 18.4651 14.5702 17.8451 15.6102 17.0151L17.6602 19.0651L19.0702 17.6551L2.34018 0.935059ZM8.00018 13.1751L5.83018 11.0051H3.00018V9.00506H5.83018L6.71018 8.12506L8.00018 9.41506V13.1751ZM17.0002 10.0051C17.0002 10.8251 16.8502 11.6151 16.5902 12.3451L18.1202 13.8751C18.6802 12.7051 19.0002 11.3951 19.0002 10.0051C19.0002 5.72506 16.0102 2.14506 12.0002 1.23506V3.29506C14.8902 4.15506 17.0002 6.83506 17.0002 10.0051ZM10.0002 2.00506L8.12018 3.88506L10.0002 5.76506V2.00506ZM14.5002 10.0051C14.5002 8.23506 13.4802 6.71506 12.0002 5.97506V7.76506L14.4802 10.2451C14.4902 10.1651 14.5002 10.0851 14.5002 10.0051Z" fill="#747881"/>
</svg>
